[img]http://img849.imageshack.us/img849/3025/posterzd.jpg[/img]
[CODE]

Source Code 2011 TS XViD - IMAGiNE

Ripper ...........:IMAGiNE                                      IMDB Rating.......:8.2/10                             
Video Codec.......:XVID                                         Release Date......:02/04/11
Audio Codec.......:MP3                                          Theatre Date......:01/04/11
Audio Bitrate.....:128                                          Runtime...........:1h 26mn
Subtitles.........:NIL                                          Language..........:ENGLISH
Resolution........:720 x 400                                    IMDb URL.......... http://www.imdb.com/title/tt0945513/

DETAILS:

Video
ID                               : 0
Format                           : MPEG-4 Visual
Format profile                   : Advanced Simple@L5
Format settings, BVOP            : Yes
Format settings, QPel            : No
Format settings, GMC             : No warppoints
Format settings, Matrix          : Default (MPEG)
Muxing mode                      : Packed bitstream
Codec ID                         : XVID
Codec ID/Hint                    : XviD
Duration                         : 1h 26mn
Bit rate                         : 2 137 Kbps
Width                            : 720 pixels
Height                           : 400 pixels
Display aspect ratio             : 16:9
Frame rate                       : 25.000 fps
Color space                      : YUV
Chroma subsampling               : 4:2:0
Bit depth                        : 8 bits
Scan type                        : Progressive
Compression mode                 : Lossy
Bits/(Pixel*Frame)               : 0.297
Stream size                      : 1.29 GiB (94%)
Writing library                  : XviD 61

Audio
ID                               : 1
Format                           : MPEG Audio
Format version                   : Version 1
Format profile                   : Layer 3
Codec ID                         : 55
Codec ID/Hint                    : MP3
Duration                         : 1h 26mn
Bit rate mode                    : Constant
Bit rate                         : 128 Kbps
Channel(s)                       : 2 channels
Sampling rate                    : 44.1 KHz
Compression mode                 : Lossy
Stream size                      : 78.9 MiB (6%)
Alignment                        : Split accross interleaves
Interleave, duration             : 40 ms (1.00 video frame)
Interleave, preload duration     : 500 m

PLOT:An action thriller centered on a soldier who wakes up in the body of an unknown man and discovers he's part of a mission to find the bomber of a Chicago commuter train.

SOURCES:
VIDEO: .........ELEKTRI4KA Thanx 
AUDIO: .........Thanx Mate 

NOTES:
IMAGiNE bringing you another release..........
This time we have a TS of Source Code.....
Video was pretty nice just had to sort the colors out some and adjust the brightness and so on.....
Audio is nice line which we ran a few filters over and muxed to our video....
Anyhow overall very nice TS here 
Enjoy Folks.

[/CODE]
Screens:
[img]http://img225.imageshack.us/img225/492/40602041.jpg[/img]
[img]http://img218.imageshack.us/img218/7296/55731224.jpg[/img]
[img]http://img41.imageshack.us/img41/5407/17853556.jpg[/img]